<?xml version="1.0" encoding="UTF-8" standalone="no"?>
<svg
   xmlns:dc="http://purl.org/dc/elements/1.1/"
   xmlns:cc="http://creativecommons.org/ns#"
   xmlns:rdf="http://www.w3.org/1999/02/22-rdf-syntax-ns#"
   xmlns:svg="http://www.w3.org/2000/svg"
   xmlns="http://www.w3.org/2000/svg"
   xmlns:sodipodi="http://sodipodi.sourceforge.net/DTD/sodipodi-0.dtd"
   xmlns:inkscape="http://www.inkscape.org/namespaces/inkscape"
   viewBox="0 0 40.000001 40"
   width="120"
   height="120"
   version="1.1"
   id="svg4"
   sodipodi:docname="codepen.svg"
   style="fill:#000000"
   inkscape:version="0.92.5 (2060ec1f9f, 2020-04-08)">
  <metadata
     id="metadata10">
    <rdf:RDF>
      <cc:Work
         rdf:about="">
        <dc:format>image/svg+xml</dc:format>
        <dc:type
           rdf:resource="http://purl.org/dc/dcmitype/StillImage" />
        <dc:title></dc:title>
      </cc:Work>
    </rdf:RDF>
  </metadata>
  <defs
     id="defs8" />
  <sodipodi:namedview
     pagecolor="#ffffff"
     bordercolor="#666666"
     borderopacity="1"
     objecttolerance="10"
     gridtolerance="10"
     guidetolerance="10"
     inkscape:pageopacity="0"
     inkscape:pageshadow="2"
     inkscape:window-width="824"
     inkscape:window-height="480"
     id="namedview6"
     showgrid="false"
     inkscape:zoom="1.5733333"
     inkscape:cx="218.00847"
     inkscape:cy="75"
     inkscape:window-x="78"
     inkscape:window-y="38"
     inkscape:window-maximized="0"
     inkscape:current-layer="svg4" />
  <path
     d="M 19.806636,1.5675559 19.361735,1.8533323 1.5169491,13.193457 V 26.832784 L 19.806636,38.458686 38.096323,26.832784 V 13.193457 Z m 0,1.9744549 16.626989,10.5639822 V 25.920249 L 19.806636,36.484231 3.179648,25.920249 V 14.105993 Z m -0.831349,2.4453362 -13.4996856,8.579786 6.5014116,4.507473 6.998274,-4.76727 z m 1.662698,0 v 8.319989 l 0.363716,0.246807 6.634559,4.520463 6.501411,-4.507473 z m -3.325397,3.0266315 v 4.4132965 l -5.325832,3.630659 -3.5072555,-2.432348 z m 4.988097,0 8.833087,5.6116075 -3.507255,2.4291 -5.325832,-3.627411 z m -2.494049,6.6865175 -6.400741,4.364585 6.400741,4.436028 0.47413,-0.327994 5.926612,-4.108034 z M 4.8423468,16.099934 v 7.839364 L 10.544884,20.05209 9.5479137,19.363629 Z m 29.9285792,0.0033 -5.702537,3.94891 1.000216,0.685213 4.702321,3.201999 z m -14.96429,1.610739 3.465039,2.364151 -3.465039,2.399877 -3.465039,-2.399872 z m -13.3015903,1.562033 1.1041359,0.7664 -1.1041359,0.750163 z m 26.6031813,0 v 1.516563 l -1.104136,-0.750163 z m -21.137709,1.766617 -0.474128,0.321499 -6.011046,4.10154 13.489943,8.573291 v -8.141379 z m 15.672236,0 -7.004769,4.854951 v 8.141379 l 13.489944,-8.573291 z m -15.681977,2.01992 5.351811,3.70535 v 4.244429 l -8.8071079,-5.59543 z m 15.691719,0 3.455296,2.354408 -8.807107,5.595371 v -4.244429 z"
     id="path2"
     inkscape:connector-curvature="0"
     style="stroke-width:0.83134943" />
</svg>
