<?xml version="1.0" encoding="UTF-8" standalone="no"?>
<svg
   xmlns:dc="http://purl.org/dc/elements/1.1/"
   xmlns:cc="http://creativecommons.org/ns#"
   xmlns:rdf="http://www.w3.org/1999/02/22-rdf-syntax-ns#"
   xmlns:svg="http://www.w3.org/2000/svg"
   xmlns="http://www.w3.org/2000/svg"
   xmlns:sodipodi="http://sodipodi.sourceforge.net/DTD/sodipodi-0.dtd"
   xmlns:inkscape="http://www.inkscape.org/namespaces/inkscape"
   viewBox="0 0 120 120"
   width="120px"
   height="120px"
   version="1.1"
   id="svg7"
   sodipodi:docname="github.svg"
   inkscape:version="0.92.5 (2060ec1f9f, 2020-04-08)">
  <metadata
     id="metadata13">
    <rdf:RDF>
      <cc:Work
         rdf:about="">
        <dc:format>image/svg+xml</dc:format>
        <dc:type
           rdf:resource="http://purl.org/dc/dcmitype/StillImage" />
        <dc:title></dc:title>
      </cc:Work>
    </rdf:RDF>
  </metadata>
  <defs
     id="defs11" />
  <sodipodi:namedview
     pagecolor="#ffffff"
     bordercolor="#666666"
     borderopacity="1"
     objecttolerance="10"
     gridtolerance="10"
     guidetolerance="10"
     inkscape:pageopacity="0"
     inkscape:pageshadow="2"
     inkscape:window-width="824"
     inkscape:window-height="480"
     id="namedview9"
     showgrid="false"
     inkscape:zoom="1.9666667"
     inkscape:cx="174.40678"
     inkscape:cy="60"
     inkscape:window-x="7"
     inkscape:window-y="102"
     inkscape:window-maximized="0"
     inkscape:current-layer="svg7" />
  <g
     id="surface164993940"
     transform="matrix(1.257682,0,0,1.257682,-15.206682,-15.715157)">
    <path
       style="fill:#000000;fill-opacity:1;fill-rule:nonzero;stroke:none"
       d="m 15.601562,60 c 0,-24.519531 19.878907,-44.398438 44.398438,-44.398438 24.519531,0 44.39844,19.878907 44.39844,44.398438 0,24.519531 -19.878909,44.39844 -44.39844,44.39844 C 35.480469,104.39844 15.601562,84.519531 15.601562,60 Z M 60,102 C 83.195312,102 102,83.195312 102,60 102,36.804688 83.195312,18 60,18 36.804688,18 18,36.804688 18,60 c 0,23.195312 18.804688,42 42,42 z m 0,0"
       id="path2"
       inkscape:connector-curvature="0" />
    <path
       style="fill:#000000;fill-opacity:1;fill-rule:nonzero;stroke:none"
       d="m 60,21.121094 c -21.394531,0 -38.738281,17.34375 -38.738281,38.734375 0,18.152343 12.5,33.339843 29.351562,37.542969 -0.179687,-0.519532 -0.296875,-1.128907 -0.296875,-1.878907 v -6.621093 c -1.574218,0 -4.207031,0 -4.867187,0 -2.652344,0 -5.007813,-1.140626 -6.152344,-3.257813 -1.265625,-2.355469 -1.488281,-5.953125 -4.632813,-8.15625 -0.929687,-0.730469 -0.222656,-1.566406 0.855469,-1.453125 1.984375,0.558594 3.628907,1.921875 5.179688,3.945312 1.542969,2.023438 2.269531,2.480469 5.152343,2.480469 1.398438,0 3.488282,-0.08203 5.457032,-0.390625 1.058594,-2.6875 2.890625,-5.164062 5.128906,-6.332031 C 43.535156,74.40625 37.378906,67.988281 37.378906,59.277344 c 0,-3.753906 1.601563,-7.378906 4.316406,-10.4375 -0.894531,-3.035156 -2.011718,-9.222656 0.339844,-11.578125 5.804688,0 9.3125,3.761719 10.15625,4.78125 2.890625,-0.992188 6.070313,-1.554688 9.40625,-1.554688 3.34375,0 6.535156,0.5625 9.433594,1.558594 0.832031,-1.007813 4.34375,-4.785156 10.160156,-4.785156 2.363282,2.359375 1.230469,8.574219 0.332032,11.601562 2.695312,3.050781 4.285156,6.667969 4.285156,10.414063 0,8.703125 -6.144532,15.121094 -19.027344,16.453125 3.546875,1.847656 6.132812,7.046875 6.132812,10.960937 v 8.828125 c 0,0.335938 -0.07422,0.578125 -0.113281,0.863281 15.09375,-5.289062 25.9375,-19.625 25.9375,-36.527343 C 98.738281,38.464844 81.394531,21.121094 60,21.121094 Z m 0,0"
       id="path4"
       inkscape:connector-curvature="0" />
  </g>
</svg>
