<?xml version="1.0" encoding="UTF-8" standalone="no"?>
<svg
   xmlns:dc="http://purl.org/dc/elements/1.1/"
   xmlns:cc="http://creativecommons.org/ns#"
   xmlns:rdf="http://www.w3.org/1999/02/22-rdf-syntax-ns#"
   xmlns:svg="http://www.w3.org/2000/svg"
   xmlns="http://www.w3.org/2000/svg"
   xmlns:sodipodi="http://sodipodi.sourceforge.net/DTD/sodipodi-0.dtd"
   xmlns:inkscape="http://www.inkscape.org/namespaces/inkscape"
   viewBox="0 0 45.520078 11.37024"
   width="72.029999"
   height="18"
   version="1.1"
   id="svg4"
   sodipodi:docname="avicii.svg"
   inkscape:version="0.92.5 (2060ec1f9f, 2020-04-08)">
  <metadata
     id="metadata10">
    <rdf:RDF>
      <cc:Work
         rdf:about="">
        <dc:format>image/svg+xml</dc:format>
        <dc:type
           rdf:resource="http://purl.org/dc/dcmitype/StillImage" />
        <dc:title></dc:title>
      </cc:Work>
    </rdf:RDF>
  </metadata>
  <defs
     id="defs8" />
  <sodipodi:namedview
     pagecolor="#ffffff"
     bordercolor="#666666"
     borderopacity="1"
     objecttolerance="10"
     gridtolerance="10"
     guidetolerance="10"
     inkscape:pageopacity="0"
     inkscape:pageshadow="2"
     inkscape:window-width="1280"
     inkscape:window-height="732"
     id="namedview6"
     showgrid="false"
     units="px"
     width="7in"
     inkscape:zoom="12.032"
     inkscape:cx="33.312535"
     inkscape:cy="13.882223"
     inkscape:window-x="0"
     inkscape:window-y="38"
     inkscape:window-maximized="1"
     inkscape:current-layer="svg4" />
  <path
     d="M 0.86429004,11.22711 C 0.73464653,11.18391 0.65686043,11.12627 0.45519275,10.92172 0.33131118,10.79784 0.22183444,10.69701 0.21031058,10.69701 c -0.0115239,0 -0.0633813,-0.0547 -0.11523868,-0.11812 C 0.00576193,10.46941 0,10.44925 0,10.23894 V 10.01422 L 0.24488218,9.7722204 c 0.13540544,-0.13253 0.34571601,-0.34284 0.46671662,-0.46672 0.1210006,-0.12388 0.3313112,-0.33131 0.4638357,-0.46095 0.1325244,-0.12965 0.6251697,-0.61941 1.0947673,-1.08613 0.4695976,-0.46671 0.9161475,-0.89598 0.9910526,-0.95072 0.074905,-0.0547 0.1354054,-0.11235 0.1382864,-0.12964 0,-0.0144 0.0605,-0.0807 0.1354055,-0.14405 0.074905,-0.0634 0.1469293,-0.13252 0.1642151,-0.15269 0.1296435,-0.14981 1.5009837,-1.50386 1.5211504,-1.50386 0.014405,0 0.025929,-0.0115 0.025929,-0.0259 0,-0.0346 1.4692931,-1.50099 1.5009837,-1.50099 0.014405,0 0.025929,-0.0115 0.025929,-0.0259 0,-0.0346 0.8642901,-0.89598 0.8959807,-0.89598 0.014405,0 0.025929,-0.0115 0.025929,-0.0259 0,-0.0144 0.077786,-0.10084 0.172858,-0.19591 0.095072,-0.0922 0.262168,-0.25641 0.3687638,-0.36588 0.1065957,-0.10948 0.2448821,-0.24489 0.3082634,-0.3025 0.1382864,-0.12965 0.175739,-0.1671 0.3111444,-0.30827 0.057619,-0.0634 0.1238816,-0.12964 0.1440484,-0.14693 0.020167,-0.0173 0.1094767,-0.10659001 0.1959057,-0.19302001 0.086429,-0.0864 0.169977,-0.15846 0.1843819,-0.15846 0.014405,0 0.1469293,-0.12388 0.2967396,-0.27369 l 0.2708108,-0.27369 h 1.0544338 l 0.158453,0.1671 c 0.126763,0.1354 0.164215,0.1959 0.193025,0.32267 0.02881,0.12388 0.03457,1.22441001 0.02593,5.09066001 l -0.01441,4.9350996 -0.152691,0.15269 -0.152691,0.15269 H 10.60772 c -0.53586,0 -0.558908,-0.009 -0.8498855,-0.35724 -0.046095,-0.0576 -0.051857,-0.29962 -0.057619,-4.0275896 l -0.00864,-3.96709 -4.2782357,4.26959 C 3.056709,9.2767704 1.1062944,11.2099 1.0774848,11.22142 c -0.063381,0.0259 -0.14981029,0.0288 -0.21319156,0.006 z M 13.114161,10.88715 c -0.05186,-0.0231 -0.172858,-0.11812 -0.265049,-0.20743 L 12.679135,10.51551 V 0.39755039 l 0.06338,-0.0605 c 0.03457,-0.0317 0.109477,-0.10659 0.161334,-0.16421 l 0.09795,-0.10372 h 0.472479 c 0.293858,0 0.469597,0.0115 0.469597,0.0288 0,0.0173 0.02017,0.0288 0.0461,0.0288 0.07779,0 0.253525,0.20743 0.290977,0.34572 0.02881,0.10083 0.03745,1.01410001 0.03745,4.07368001 v 3.94405 l 0.273692,-0.27081 c 0.14981,-0.14981 0.288096,-0.28234 0.302501,-0.29962 0.02593,-0.0259 0.847005,-0.84701 0.927672,-0.93056 0.187262,-0.18726 0.576193,-0.57619 0.605003,-0.60212 0.03169,-0.0288 0.152691,-0.14981 0.316906,-0.31978 0.02017,-0.0202 0.155572,-0.15558 0.305382,-0.30251 0.14693,-0.14693 0.285216,-0.28233 0.302502,-0.3025 0.03745,-0.0403 0.544503,-0.54738 0.602122,-0.60212 0.03169,-0.0288 0.09219,-0.0922 0.314025,-0.31403 l 0.305383,-0.30538 0.305382,-0.30538 0.463836,-0.46384 0.458074,-0.45807 c 0.05474,-0.0576 0.573312,-0.57331 0.599241,-0.59924 l 0.458074,-0.45807 0.463835,-0.46384 0.302502,-0.3025 0.305382,-0.30538001 c 0.02017,-0.0202 0.09219,-0.0893 0.158453,-0.15846 0.06626,-0.0691 0.138287,-0.14116 0.158454,-0.16133 0.02017,-0.0202 0.1815,-0.18438 0.363001,-0.36877 l 0.328431,-0.32843 h 0.374525 l 0.339954,0.33996 c 0.316907,0.31691 0.339954,0.3486 0.377407,0.50129 0.07779,0.32843001 0.144048,0.23912 -1.258982,1.64503001 -0.694313,0.69431 -1.754509,1.75163 -2.356631,2.34799 -0.602122,0.59636 -2.218345,2.20106 -3.589685,3.56663 -1.37134,1.36558 -2.543894,2.5208496 -2.604394,2.5669496 -0.109477,0.0835 -0.112358,0.0835 -0.558907,0.0922 -0.351478,0.003 -0.472479,-0.006 -0.547384,-0.0403 z m 12.267156,-0.006 c -0.05474,-0.0259 -0.175739,-0.121 -0.265049,-0.21031 L 24.952053,10.50951 V 0.41460039 l 0.141168,-0.14693 0.141167,-0.14693 h 1.089006 l 0.129643,0.121 0.129644,0.121 0.0086,5.14253001 0.0086,5.1425196 -0.132524,0.12965 -0.132525,0.12964 -0.423502,0.009 c -0.35724,0.0144 -0.44655,0.006 -0.530098,-0.0346 z m 15.586031,0 c -0.05474,-0.0259 -0.169977,-0.11812 -0.253525,-0.20455 L 40.564012,10.52103 V 0.39731039 l 0.126763,-0.1354 0.126763,-0.13541 h 1.100529 l 0.112358,0.11236 c 0.08067,0.0807 0.121,0.15269 0.146929,0.26505 0.02881,0.121 0.03457,1.25322001 0.02593,5.14541001 l -0.0086,4.9898296 -0.138287,0.13829 -0.138286,0.13828 -0.423502,0.009 c -0.354359,0.006 -0.443669,-0.003 -0.527217,-0.0432 z m 3.313112,0 C 44.22572,10.85525 44.110483,10.76303 44.026935,10.6766 L 43.877124,10.52103 V 0.39731039 l 0.126763,-0.1354 0.126762,-0.13541 h 1.10053 l 0.112357,0.11236 c 0.08067,0.0807 0.121001,0.15269 0.14693,0.26505 0.02881,0.121 0.03457,1.25322001 0.02593,5.14541001 l -0.0086,4.9898296 -0.138286,0.13829 -0.138286,0.13828 -0.423502,0.009 c -0.354359,0.006 -0.443669,-0.003 -0.527217,-0.0432 z m -11.238652,-0.0231 c -0.0086,-0.009 -0.14981,-0.0317 -0.314025,-0.0547 -0.599241,-0.0835 -1.408793,-0.40333 -1.967701,-0.77786 -0.155572,-0.1037096 -0.296739,-0.1901396 -0.311144,-0.1901396 -0.01441,0 -0.02593,-0.009 -0.02593,-0.0231 0,-0.0115 -0.04898,-0.0547 -0.109476,-0.0922 -0.123882,-0.0836 -0.927672,-0.87293 -0.927672,-0.91038 0,-0.0144 -0.03169,-0.0605 -0.07202,-0.10372 -0.04033,-0.0432 -0.07202,-0.0864 -0.07202,-0.0951 0,-0.009 -0.0461,-0.0778 -0.100834,-0.14981 -0.05474,-0.072 -0.100834,-0.14981 -0.100834,-0.16998 0,-0.0202 -0.01152,-0.0403 -0.02881,-0.0403 -0.01729,0 -0.02881,-0.0259 -0.02881,-0.0576 0,-0.0317 -0.01152,-0.0576 -0.02593,-0.0576 -0.01441,0 -0.0749,-0.10083 -0.135405,-0.22472 -0.0605,-0.12388 -0.121001,-0.22759 -0.132525,-0.23335 -0.01152,-0.006 -0.02305,-0.0403 -0.02305,-0.0807 0,-0.0403 -0.01152,-0.0691 -0.02305,-0.0691 -0.01152,0 -0.04898,-0.0893 -0.07779,-0.20167 -0.02881,-0.11236 -0.06626,-0.20167 -0.07779,-0.20167 -0.01152,0 -0.02305,-0.0403 -0.02305,-0.0864 0,-0.0461 -0.01441,-0.0864 -0.03169,-0.0864 -0.02017,0 -0.02593,-0.0317 -0.01441,-0.0864 0.0086,-0.0461 0.0058,-0.0922 -0.01152,-0.10371 -0.01441,-0.009 -0.02881,-0.0663 -0.02881,-0.12965 0,-0.0605 -0.01441,-0.121 -0.02881,-0.12964 -0.01441,-0.009 -0.02881,-0.0807 -0.02881,-0.15557 0,-0.0749 -0.01441,-0.14981 -0.03169,-0.1671 -0.02017,-0.0202 -0.03169,-0.27369 -0.03169,-0.72888 0,-0.45519 0.01152,-0.70872 0.03169,-0.72889 0.01729,-0.0173 0.03169,-0.0922 0.03169,-0.16709 0,-0.0749 0.01152,-0.14405 0.02593,-0.15269 0.01441,-0.009 0.03457,-0.11236 0.0461,-0.23336 0.01152,-0.121 0.03169,-0.21607 0.0461,-0.21607 0.01441,0 0.02593,-0.0403 0.02593,-0.0864 0,-0.0461 0.01152,-0.0864 0.02305,-0.0864 0.01152,0 0.03745,-0.0576 0.05762,-0.12965 0.02017,-0.072 0.06626,-0.1959 0.106596,-0.27945 0.04033,-0.0836 0.07202,-0.17286 0.07202,-0.20167 0,-0.0288 0.01441,-0.0519 0.02881,-0.0519 0.01729,0 0.02881,-0.0202 0.02881,-0.0432 0,-0.0231 0.01152,-0.0432 0.02881,-0.0432 0.01729,0 0.02881,-0.0173 0.02881,-0.0375 0,-0.0576 0.08643,-0.22183 0.118119,-0.22183 0.01441,0 0.02593,-0.0259 0.02593,-0.0576 0,-0.0317 0.01152,-0.0576 0.02881,-0.0576 0.01729,0 0.02881,-0.0115 0.02881,-0.0288 0,-0.0317 0.20743,-0.33995 0.288097,-0.42638 0.03169,-0.0346 0.05762,-0.072 0.05762,-0.0893 0,-0.0461 0.835481,-0.86717 0.881576,-0.86717 0.02305,0 0.04898,-0.0202 0.05762,-0.0432 0.0086,-0.0231 0.06338,-0.072 0.121001,-0.10947 0.05762,-0.0375 0.138286,-0.0893 0.17862,-0.11524001 0.04033,-0.0288 0.103715,-0.0634 0.138286,-0.0778 0.03457,-0.0144 0.06338,-0.0432 0.06338,-0.0576 0,-0.0144 0.01729,-0.0288 0.04033,-0.0288 0.02017,0 0.08931,-0.0317 0.14693,-0.072 0.0605,-0.0403 0.146929,-0.0807 0.190143,-0.0893 0.0461,-0.009 0.08355,-0.0288 0.08355,-0.0432 0,-0.0144 0.02017,-0.0259 0.04322,-0.0259 0.02305,0 0.04321,-0.0115 0.04321,-0.0288 0,-0.0173 0.02305,-0.0288 0.05186,-0.0288 0.02881,0 0.109477,-0.0259 0.175739,-0.0605 0.06914,-0.0317 0.167096,-0.0663 0.221834,-0.0749 0.05474,-0.009 0.09795,-0.0259 0.09795,-0.0403 0,-0.0144 0.03745,-0.0259 0.08643,-0.0259 0.04898,0 0.08643,-0.0115 0.08643,-0.0288 0,-0.0173 0.04322,-0.0288 0.09795,-0.0288 0.05474,0 0.106596,-0.0115 0.115239,-0.0259 0.01729,-0.0259 0.296739,-0.0663 0.440788,-0.0634 0.04898,0.003 0.100833,-0.0115 0.109476,-0.0259 0.02593,-0.0403 1.483698,-0.0403 1.483698,0 0,0.0173 0.04898,0.0288 0.109477,0.0259 0.0605,-0.003 0.172858,0.0115 0.253525,0.0317 0.08067,0.0202 0.193025,0.0432 0.253525,0.049 0.0605,0.009 0.109477,0.0259 0.109477,0.0403 0,0.0144 0.03169,0.0259 0.07202,0.0259 0.04033,0 0.07202,0.0115 0.07202,0.0259 0,0.0144 0.04321,0.0317 0.09219,0.0403 0.129644,0.0202 0.311144,0.0864 0.311144,0.11236 0,0.0115 0.02305,0.023 0.05186,0.023 0.02881,0 0.115239,0.0317 0.195906,0.072 0.07779,0.0403 0.158453,0.072 0.17862,0.072 0.02017,0 0.03457,0.0115 0.03457,0.0259 0,0.0144 0.05762,0.049 0.129644,0.0807 0.07202,0.0288 0.129643,0.0663 0.129643,0.0807 0,0.0173 0.05474,0.0547 0.123882,0.0835 0.06626,0.0317 0.144048,0.0778 0.167096,0.10948001 0.02305,0.0317 0.0605,0.0519 0.08067,0.0519 0.02017,0 0.0605,0.0317 0.09507,0.072 0.03457,0.0403 0.07779,0.072 0.09795,0.072 0.01729,0 0.123881,0.0922 0.233358,0.20455 0.109477,0.11235 0.218953,0.22471 0.242001,0.24488 0.253525,0.242 0.35724,0.35436 0.391812,0.42062 0.02305,0.0432 0.05186,0.0807 0.06338,0.0807 0.01152,0 0.05186,0.0519 0.08643,0.11523 0.03457,0.0634 0.07491,0.11524 0.08931,0.11524 0.01441,0 0.03169,0.0231 0.04321,0.0519 0.02593,0.0691 0.08643,0.16998 0.138287,0.23048 0.02305,0.0288 0.05474,0.0836 0.06626,0.12388 0.01152,0.0403 0.03745,0.0836 0.05762,0.10083 0.05186,0.0403 0.216073,0.36589 0.216073,0.42351 0,0.0259 0.0144,0.0576 0.02881,0.0663 0.01729,0.009 0.02881,0.0432 0.02881,0.072 0,0.0288 0.0086,0.0576 0.02305,0.0634 0.02017,0.009 0.210311,0.57043 0.259287,0.7721 0.03457,0.13541 0.01152,0.19591 -0.11812,0.3486 l -0.109476,0.12676 -0.532979,0.009 c -0.44655,0.009 -0.544503,0.003 -0.602122,-0.0346 -0.03745,-0.0259 -0.08931,-0.0461 -0.112358,-0.0461 -0.02593,0 -0.04322,-0.0259 -0.04322,-0.0576 0,-0.0317 -0.01152,-0.0576 -0.02881,-0.0576 -0.01729,0 -0.02881,-0.0317 -0.02881,-0.0691 0,-0.0375 -0.01152,-0.0778 -0.02593,-0.0864 -0.0144,-0.009 -0.03457,-0.0605 -0.04321,-0.11524 -0.01729,-0.0922 -0.06626,-0.21607 -0.17862,-0.46672 -0.02305,-0.049 -0.04033,-0.10371 -0.04033,-0.11812 0,-0.0144 -0.02593,-0.0519 -0.05762,-0.0807 -0.03169,-0.0288 -0.05762,-0.0691 -0.05762,-0.0922 0,-0.023 -0.01152,-0.0375 -0.02593,-0.0375 -0.0144,0 -0.03457,-0.0317 -0.04321,-0.072 -0.0086,-0.0403 -0.03169,-0.072 -0.0461,-0.072 -0.01441,0 -0.02881,-0.0115 -0.02881,-0.0288 0,-0.0807 -0.691432,-0.83548 -0.769218,-0.83548 -0.01729,0 -0.03745,-0.0115 -0.04321,-0.023 -0.01152,-0.0317 -0.305383,-0.23624 -0.337073,-0.23624 -0.0144,0 -0.03169,-0.009 -0.03745,-0.0231 -0.02017,-0.049 -0.553145,-0.27369 -0.832599,-0.35436 -0.377407,-0.10948 -0.884457,-0.14981 -1.368459,-0.11236 -0.391812,0.0317 -0.432146,0.0374 -0.746171,0.12964 -0.749051,0.21608 -1.515388,0.76346 -1.979224,1.41168 -0.262168,0.36876 -0.495526,0.83836 -0.610765,1.23881 -0.06626,0.22472 -0.129644,0.7116 -0.129644,0.97953 0,0.36589 0.09795,1.00834 0.172858,1.12358 0.01152,0.0144 0.04322,0.10371 0.07203,0.19591 0.02881,0.0922 0.06338,0.16709 0.07779,0.16709 0.01152,0 0.02305,0.0259 0.02305,0.0576 0,0.0317 0.01152,0.0576 0.02881,0.0576 0.01729,0 0.02881,0.0173 0.02881,0.0403 0,0.023 0.01729,0.0576 0.03745,0.0807 0.02017,0.0202 0.0605,0.0836 0.08643,0.14117 0.02593,0.0576 0.06914,0.121 0.09219,0.14117 0.02305,0.0202 0.04322,0.0547 0.04322,0.0778 0,0.0231 0.02017,0.049 0.04321,0.0576 0.02305,0.009 0.04322,0.0288 0.04322,0.0432 0,0.049 0.524336,0.60212 0.56755,0.60212 0.01152,0 0.06626,0.0432 0.121001,0.0922 0.106596,0.10083 0.126762,0.11236 0.331311,0.22183 0.07202,0.0375 0.132525,0.0807 0.132525,0.0922 0,0.0115 0.02593,0.023 0.05762,0.023 0.03169,0 0.05762,0.009 0.05762,0.0231 0,0.0288 0.144049,0.0922 0.20743,0.0922 0.02881,0 0.05186,0.009 0.05186,0.0231 0,0.0288 0.216073,0.121 0.285216,0.121 0.03169,0 0.06338,0.0144 0.0749,0.0288 0.0086,0.0144 0.05474,0.0288 0.100834,0.0288 0.04609,0 0.09219,0.0144 0.100834,0.0288 0.0086,0.0144 0.06914,0.0288 0.132524,0.0288 0.06338,0 0.112358,0.0144 0.112358,0.0288 0,0.0173 0.230477,0.0288 0.633813,0.0288 0.403335,0 0.633812,-0.0115 0.633812,-0.0288 0,-0.0144 0.05762,-0.0288 0.129644,-0.0288 0.07202,0 0.129643,-0.0144 0.129643,-0.0288 0,-0.0144 0.02881,-0.0288 0.06338,-0.0288 0.09507,0 0.397573,-0.0893 0.397573,-0.11812 0,-0.0144 0.03169,-0.0259 0.07202,-0.0259 0.04033,0 0.07202,-0.0144 0.07202,-0.0288 0,-0.0144 0.02305,-0.0288 0.05474,-0.0288 0.02881,0 0.08355,-0.0231 0.121,-0.0547 0.03745,-0.0288 0.100834,-0.0634 0.141168,-0.0749 0.04033,-0.0115 0.09795,-0.0432 0.129643,-0.072 0.03169,-0.0288 0.100834,-0.0749 0.155572,-0.10371 0.149811,-0.0836 0.250645,-0.17286 0.579075,-0.50705 0.383168,-0.38893 0.460954,-0.47824 0.460954,-0.52722 0,-0.0202 0.02017,-0.0547 0.04322,-0.0749 0.02305,-0.0202 0.04321,-0.0547 0.04321,-0.0749 0,-0.0202 0.01152,-0.0403 0.02881,-0.0403 0.01729,0 0.02881,-0.0144 0.02881,-0.0288 0,-0.0144 0.02593,-0.0576 0.05762,-0.0893 0.03169,-0.0346 0.06338,-0.098 0.07491,-0.14405 0.01152,-0.0461 0.02881,-0.0836 0.04321,-0.0836 0.01441,0 0.02593,-0.0317 0.02593,-0.072 0,-0.0403 0.01152,-0.072 0.02305,-0.072 0.01152,0 0.03745,-0.0576 0.05762,-0.12964 0.02017,-0.072 0.04609,-0.12964 0.0605,-0.12964 0.0144,0 0.03457,-0.072 0.0461,-0.15846 0.01152,-0.0864 0.03169,-0.15845 0.0461,-0.15845 0.0144,0 0.02593,-0.0259 0.02593,-0.0576 0,-0.0547 0.02017,-0.0576 0.633813,-0.0576 0.579074,0 0.636694,0.006 0.65398,0.0519 0.0086,0.0288 0.05762,0.0893 0.106595,0.13828 0.04898,0.049 0.103715,0.14405 0.121001,0.21032 0.02881,0.10947 0.02305,0.15557 -0.06626,0.45807 -0.213192,0.71448 -0.429264,1.12934 -0.947838,1.82365 -0.167096,0.22472 -0.852766,0.88446 -1.080363,1.04291 -0.751932,0.5214596 -1.382864,0.7749796 -2.345107,0.9420796 -0.187263,0.0317 -1.359816,0.0461 -1.385745,0.0173 z"
     id="path2"
     inkscape:connector-curvature="0"
     style="stroke-width:0.02880967" />
</svg>
