<?xml version="1.0" encoding="UTF-8" standalone="no"?>
<svg
   xmlns:dc="http://purl.org/dc/elements/1.1/"
   xmlns:cc="http://creativecommons.org/ns#"
   xmlns:rdf="http://www.w3.org/1999/02/22-rdf-syntax-ns#"
   xmlns:svg="http://www.w3.org/2000/svg"
   xmlns="http://www.w3.org/2000/svg"
   xmlns:sodipodi="http://sodipodi.sourceforge.net/DTD/sodipodi-0.dtd"
   xmlns:inkscape="http://www.inkscape.org/namespaces/inkscape"
   viewBox="0 0 144 144"
   width="144"
   height="144"
   version="1.1"
   id="svg7"
   sodipodi:docname="codepen.svg"
   inkscape:version="0.92.5 (2060ec1f9f, 2020-04-08)">
  <metadata
     id="metadata13">
    <rdf:RDF>
      <cc:Work
         rdf:about="">
        <dc:format>image/svg+xml</dc:format>
        <dc:type
           rdf:resource="http://purl.org/dc/dcmitype/StillImage" />
        <dc:title></dc:title>
      </cc:Work>
    </rdf:RDF>
  </metadata>
  <defs
     id="defs11" />
  <sodipodi:namedview
     pagecolor="#ffffff"
     bordercolor="#666666"
     borderopacity="1"
     objecttolerance="10"
     gridtolerance="10"
     guidetolerance="10"
     inkscape:pageopacity="0"
     inkscape:pageshadow="2"
     inkscape:window-width="1280"
     inkscape:window-height="732"
     id="namedview9"
     showgrid="false"
     inkscape:zoom="1.84375"
     inkscape:cx="64"
     inkscape:cy="64"
     inkscape:window-x="0"
     inkscape:window-y="38"
     inkscape:window-maximized="1"
     inkscape:current-layer="svg7" />
  <g
     id="surface170133500"
     transform="matrix(1.3128984,0,0,1.3128984,-11.809389,-11.889912)">
    <path
       style="fill:#000000;fill-opacity:1;fill-rule:nonzero;stroke:#000000;stroke-width:4;stroke-linecap:butt;stroke-linejoin:round;stroke-miterlimit:10;stroke-opacity:1"
       d="m 89.02477,17.300652 64.49798,43.168786 2.3532,1.509698 v 48.041724 l -2.3532,1.5097 L 89.02477,154.69935 86,156.71407 82.97523,154.69935 18.47725,111.53056 16.124054,110.02086 V 61.979136 L 18.47725,60.469438 82.97523,17.300652 86,15.28593 Z M 31.242531,65.003906 52.910199,79.61736 80.627407,60.974462 V 31.747555 Z M 91.372593,60.974462 119.0898,79.61736 140.75747,65.003906 91.372593,31.747555 Z M 62.650711,86 86,101.6235 109.34929,86 86,70.376499 Z M 26.874613,97.08366 43.336238,86 26.874613,74.916341 Z M 128.66376,86 145.12539,97.08366 V 74.916341 Z m -97.421229,20.99609 49.384876,33.25635 v -29.2269 L 53.07675,92.382641 Z m 60.130062,4.02945 v 29.2269 L 140.75747,106.99609 118.92325,92.382641 Z m 0,0"
       transform="matrix(0.72707,0,0,0.72707,1.472,1.472)"
       id="path2"
       inkscape:connector-curvature="0" />
    <path
       style="fill:#ffffff;fill-opacity:1;fill-rule:nonzero;stroke:none"
       d="M 64,12.585938 61.800781,14.050781 14.90625,45.4375 13.195312,46.535156 V 81.464844 L 14.90625,82.5625 61.800781,113.94922 64,115.41406 66.199219,113.94922 113.09375,82.5625 114.80469,81.464844 V 46.535156 L 113.09375,45.4375 66.199219,14.050781 Z m -3.90625,11.96875 v 21.25 L 39.941406,59.359375 24.1875,48.734375 Z m 7.8125,0 35.90625,24.179687 -15.753906,10.625 L 67.90625,45.804688 Z M 64,52.640625 80.976562,64 64,75.359375 47.023438,64 Z M 21.011719,55.941406 32.980469,64 21.011719,72.058594 Z m 85.976561,0 V 72.058594 L 95.019531,64 Z M 40.0625,68.640625 60.09375,82.195312 V 103.44531 L 24.1875,79.265625 Z m 47.875,0 15.875,10.625 -35.90625,24.179685 V 82.195312 Z m 0,0"
       id="path4"
       inkscape:connector-curvature="0" />
  </g>
</svg>
