<?xml version="1.0" encoding="UTF-8"?>
<svg xmlns="http://www.w3.org/2000/svg" xmlns:xlink="http://www.w3.org/1999/xlink" viewBox="0 0 144 144" width="144px" height="144px">
<g id="surface170134899">
<path style="fill-rule:nonzero;fill:rgb(0%,0%,0%);fill-opacity:1;stroke-width:4;stroke-linecap:butt;stroke-linejoin:round;stroke:rgb(0%,0%,0%);stroke-opacity:1;stroke-miterlimit:10;" d="M 157.668004 86 C 157.668004 125.518407 125.518407 157.668004 86 157.668004 C 46.481593 157.668004 14.331996 125.518407 14.331996 86 C 14.331996 46.481593 46.481593 14.331996 86 14.331996 C 125.518407 14.331996 157.668004 46.481593 157.668004 86 Z M 25.081958 86 C 25.081958 113.469472 43.152973 136.607439 68.081805 144.234134 L 68.081805 132.581576 L 62.456103 132.581576 C 58.158029 132.581576 54.351845 129.572924 52.498897 126.234753 C 50.4597 122.528857 50.106303 116.860175 45.020248 113.397837 C 43.515922 112.237357 44.681178 110.919281 46.409959 111.105531 C 49.609636 111.993799 52.279218 114.133285 54.757774 117.318636 C 57.26976 120.503987 59.074951 122.39514 63.721647 122.39514 L 68.435202 122.39514 C 69.504945 117.079854 73.010264 112.70537 77.690389 110.293672 C 66.257511 108.101654 56.892485 101.55903 52.637391 92.786182 C 48.382297 84.013335 49.781559 74.132539 56.376716 66.338697 C 54.772101 62.938443 51.777776 54.604954 56.620273 46.854093 C 64.738858 46.854093 69.982509 52.40816 72.494495 55.875274 C 76.783018 54.476012 81.367631 53.75489 86 53.750115 C 90.627594 53.764442 95.212206 54.490339 99.491178 55.899152 C 101.998388 52.432039 107.246815 46.854093 115.379727 46.854093 C 119.601391 53.606846 117.824854 62.188668 116.234566 67.083697 C 122.409467 74.901417 123.488761 84.624616 119.128603 93.192111 C 114.773221 101.759607 105.518034 108.120757 94.271406 110.269794 C 99.973518 113.192485 103.918195 119.061744 103.918195 125.905234 L 103.918195 144.234134 C 128.847027 136.607439 146.918042 113.469472 146.918042 86 C 146.918042 52.293545 119.706455 25.081958 86 25.081958 C 52.293545 25.081958 25.081958 52.293545 25.081958 86 Z M 25.081958 86 " transform="matrix(0.817953,0,0,0.817953,1.656,1.656)"/>
<path style=" stroke:none;fill-rule:nonzero;fill:rgb(100%,100%,100%);fill-opacity:1;" d="M 72 13.378906 C 39.675781 13.378906 13.378906 39.675781 13.378906 72 C 13.378906 104.324219 39.675781 130.621094 72 130.621094 C 104.324219 130.621094 130.621094 104.324219 130.621094 72 C 130.621094 39.675781 104.324219 13.378906 72 13.378906 Z M 72 22.171875 C 99.570312 22.171875 121.828125 44.429688 121.828125 72 C 121.828125 94.46875 107.046875 113.394531 86.65625 119.632812 L 86.65625 104.640625 C 86.65625 99.042969 83.429688 94.242188 78.765625 91.851562 C 87.964844 90.09375 95.535156 84.890625 99.097656 77.882812 C 102.664062 70.875 101.78125 62.921875 96.730469 56.527344 C 98.03125 52.523438 99.484375 45.503906 96.03125 39.980469 C 89.378906 39.980469 85.085938 44.542969 83.035156 47.378906 C 79.535156 46.226562 75.785156 45.632812 72 45.621094 C 68.210938 45.625 64.460938 46.214844 60.953125 47.359375 C 58.898438 44.523438 54.609375 39.980469 47.96875 39.980469 C 44.007812 46.320312 46.457031 53.136719 47.769531 55.917969 C 42.375 62.292969 41.230469 70.375 44.710938 77.550781 C 48.191406 84.726562 55.851562 90.078125 65.203125 91.871094 C 61.375 93.84375 58.507812 97.421875 57.632812 101.769531 L 53.777344 101.769531 C 49.976562 101.769531 48.5 100.222656 46.445312 97.617188 C 44.417969 95.011719 42.234375 93.261719 39.617188 92.535156 C 38.203125 92.382812 37.25 93.460938 38.484375 94.410156 C 42.640625 97.242188 42.929688 101.878906 44.597656 104.910156 C 46.113281 107.640625 49.226562 110.101562 52.742188 110.101562 L 57.34375 110.101562 L 57.34375 119.632812 C 36.953125 113.394531 22.171875 94.46875 22.171875 72 C 22.171875 44.429688 44.429688 22.171875 72 22.171875 Z M 72 22.171875 "/>
</g>
</svg>
